<?xml version="1.0" encoding="utf-8"?>
<svg
viewBox="0 0 24 24"
stroke="white" fill="none" stroke-width="1.6" stroke-linecap="round"
xmlns="http://www.w3.org/2000/svg">
<circle cx="12" cy="12" r="3" />
<path d="M3 10 C4 10 4 11 4 11 C4 12 4 13 3 13 C3 13 3 13 2 13 C2 14 2 14 2 15 C2 15 2 16 3 16 C3 17 4 18 4 18 C4 18 5 18 5 18 C6 18 6 18 6 18 C7 18 7 18 8 18 C8 18 8 19 9 19 C9 20 9 20 9 20 C9 21 9 21 10 21 C10 22 11 22 12 22C12 22 13 22 13 21 C14 21 14 21 14 20 C14 20 14 20 14 19 C15 19 15 18 15 18 C16 18 16 18 17 18 C17 18 17 18 18 18 C18 18 19 18 19 18 C19 18 20 17 20 17C20 16 21 16 21 16 M20 13 C19 13 19 12 19 12 C19 11 19 10 20 10 C20 10 20 10 21 10 C21 9 21 9 21 8 C21 8 21 7 20 7 C20 6 19 5 19 5 C19 5 18 5 18 5 C17 5 17 5 17 5 C16 5 16 5 15 5 C15 5 15 4 14 4 C14 3 14 3 14 3 C14 2 14 2 13 2 C13 2 12 2 12 2C11 2 10 2 10 2 C9 2 9 2 9 3 C9 3 9 3 9 4 C8 4 8 5 8 5 C7 5 7 5 6 5 C6 5 6 5 5 5 C5 5 4 5 4 5 C4 5 3 6 3 7C3 7 2 7 2 7 " />
</svg>
